<?xml version="1.0" encoding="UTF-8"?><svg xmlns="http://www.w3.org/2000/svg" xmlns:xlink="http://www.w3.org/1999/xlink" height="224.7" preserveAspectRatio="xMidYMid meet" version="1.1" viewBox="131.1 100.3 163.1 224.7" width="163.1" zoomAndPan="magnify">
 <g id="surface1">
  <g id="change1_1"><path d="m236.57 215.99c8.24-6.87 13.49-17.21 13.49-28.78 0-20.68-16.77-37.45-37.46-37.45s-37.46 16.77-37.46 37.45c0 11.57 5.25 21.91 13.49 28.78 7.71 9.19 10.56 14.9 10.86 20.54 0.17 6.95-3.55 0.77-11.81 13.95 2.69 5.48 13.8 11.13 24.92 10.88 11.11 0.25 22.23-5.4 24.93-10.88-8.27-13.18-11.99-7-11.82-13.95 0.3-5.64 3.15-11.35 10.86-20.54" fill="#fff"/></g>
  <path d="m2365.7 2092.1c82.4 68.7 134.9 172.1 134.9 287.8 0 206.8-167.7 374.5-374.6 374.5s-374.6-167.7-374.6-374.5c0-115.7 52.5-219.1 134.9-287.8 77.1-91.9 105.6-149 108.6-205.4 1.7-69.5-35.5-7.7-118.1-139.5 26.9-54.8 138-111.3 249.2-108.8 111.1-2.5 222.3 54 249.3 108.8-82.7 131.8-119.9 70-118.2 139.5 3 56.4 31.5 113.5 108.6 205.4z" fill="none" stroke="#445eb4" stroke-miterlimit="10" stroke-width="50" transform="matrix(.1 0 0 -.1 0 425.2)"/>
  <g id="change1_2"><path d="m2126 2633.6c-140.6 0-254.6-114-254.6-254.6" fill="#fff" stroke="#445eb4" stroke-linecap="round" stroke-linejoin="round" stroke-miterlimit="10" stroke-width="50" transform="matrix(.1 0 0 -.1 0 425.2)"/></g>
  <g id="change1_3"><path d="m242.2 253.99c0 2.38-1.93 4.31-4.31 4.31h-50.58c-2.37 0-4.3-1.93-4.3-4.31s1.93-4.31 4.3-4.31h50.58c2.38 0 4.31 1.93 4.31 4.31" fill="#fff"/></g>
  <path d="m2422 1712.1c0-23.8-19.3-43.1-43.1-43.1h-505.8c-23.7 0-43 19.3-43 43.1s19.3 43.1 43 43.1h505.8c23.8 0 43.1-19.3 43.1-43.1z" fill="none" stroke="#445eb4" stroke-miterlimit="10" stroke-width="50" transform="matrix(.1 0 0 -.1 0 425.2)"/>
  <g id="change1_4"><path d="m234.89 262.61c0 2.38-1.92 4.31-4.3 4.31h-35.98c-2.38 0-4.31-1.93-4.31-4.31s1.93-4.31 4.31-4.31h35.98c2.38 0 4.3 1.93 4.3 4.31" fill="#fff"/></g>
  <path d="m2348.9 1625.9c0-23.8-19.2-43.1-43-43.1h-359.8c-23.8 0-43.1 19.3-43.1 43.1s19.3 43.1 43.1 43.1h359.8c23.8 0 43-19.3 43-43.1z" fill="none" stroke="#445eb4" stroke-miterlimit="10" stroke-width="50" transform="matrix(.1 0 0 -.1 0 425.2)"/>
  <g id="change1_5"><path d="m229.17 271.23c0 2.38-1.93 4.31-4.31 4.31h-24.52c-2.38 0-4.31-1.93-4.31-4.31s1.93-4.31 4.31-4.31h24.52c2.38 0 4.31 1.93 4.31 4.31" fill="#fff"/></g>
  <path d="m2291.7 1539.7c0-23.8-19.3-43.1-43.1-43.1h-245.2c-23.8 0-43.1 19.3-43.1 43.1s19.3 43.1 43.1 43.1h245.2c23.8 0 43.1-19.3 43.1-43.1z" fill="none" stroke="#445eb4" stroke-miterlimit="10" stroke-width="50" transform="matrix(.1 0 0 -.1 0 425.2)"/>
  <path d="m2126 2938.9v144.9" fill="none" stroke="#445eb4" stroke-linecap="round" stroke-linejoin="round" stroke-miterlimit="10" stroke-width="50" transform="matrix(.1 0 0 -.1 0 425.2)"/>
  <path d="m2126 3190.4v34" fill="none" stroke="#445eb4" stroke-linecap="round" stroke-linejoin="round" stroke-miterlimit="10" stroke-width="50" transform="matrix(.1 0 0 -.1 0 425.2)"/>
  <path d="m2440.6 2839l83.6 118.4" fill="none" stroke="#445eb4" stroke-linecap="round" stroke-linejoin="round" stroke-miterlimit="10" stroke-width="50" transform="matrix(.1 0 0 -.1 0 425.2)"/>
  <path d="m2585.6 3044.5l19.7 27.8" fill="none" stroke="#445eb4" stroke-linecap="round" stroke-linejoin="round" stroke-miterlimit="10" stroke-width="50" transform="matrix(.1 0 0 -.1 0 425.2)"/>
  <path d="m1811.4 1947.7l-83.6-118.4" fill="none" stroke="#445eb4" stroke-linecap="round" stroke-linejoin="round" stroke-miterlimit="10" stroke-width="50" transform="matrix(.1 0 0 -.1 0 425.2)"/>
  <path d="m1666.4 1742.2l-19.7-27.8" fill="none" stroke="#445eb4" stroke-linecap="round" stroke-linejoin="round" stroke-miterlimit="10" stroke-width="50" transform="matrix(.1 0 0 -.1 0 425.2)"/>
  <path d="m2637.4 2583.2l135.9 50.4" fill="none" stroke="#445eb4" stroke-linecap="round" stroke-linejoin="round" stroke-miterlimit="10" stroke-width="50" transform="matrix(.1 0 0 -.1 0 425.2)"/>
  <path d="m2873.2 2670.7l32 11.8" fill="none" stroke="#445eb4" stroke-linecap="round" stroke-linejoin="round" stroke-miterlimit="10" stroke-width="50" transform="matrix(.1 0 0 -.1 0 425.2)"/>
  <path d="m1614.5 2203.5l-135.8-50.4" fill="none" stroke="#445eb4" stroke-linecap="round" stroke-linejoin="round" stroke-miterlimit="10" stroke-width="50" transform="matrix(.1 0 0 -.1 0 425.2)"/>
  <path d="m1378.8 2116l-31.9-11.9" fill="none" stroke="#445eb4" stroke-linecap="round" stroke-linejoin="round" stroke-miterlimit="10" stroke-width="50" transform="matrix(.1 0 0 -.1 0 425.2)"/>
  <path d="m2642.8 2218.7l137.3-46.4" fill="none" stroke="#445eb4" stroke-linecap="round" stroke-linejoin="round" stroke-miterlimit="10" stroke-width="50" transform="matrix(.1 0 0 -.1 0 425.2)"/>
  <path d="m2881.1 2138.1l32.2-10.9" fill="none" stroke="#445eb4" stroke-linecap="round" stroke-linejoin="round" stroke-miterlimit="10" stroke-width="50" transform="matrix(.1 0 0 -.1 0 425.2)"/>
  <path d="m1609.2 2568.1l-137.3 46.4" fill="none" stroke="#445eb4" stroke-linecap="round" stroke-linejoin="round" stroke-miterlimit="10" stroke-width="50" transform="matrix(.1 0 0 -.1 0 425.2)"/>
  <path d="m1371 2648.6l-32.3 10.9" fill="none" stroke="#445eb4" stroke-linecap="round" stroke-linejoin="round" stroke-miterlimit="10" stroke-width="50" transform="matrix(.1 0 0 -.1 0 425.2)"/>
  <path d="m2438.4 1946.1l83-118.7" fill="none" stroke="#445eb4" stroke-linecap="round" stroke-linejoin="round" stroke-miterlimit="10" stroke-width="50" transform="matrix(.1 0 0 -.1 0 425.2)"/>
  <path d="m2582.4 1740l19.6-27.9" fill="none" stroke="#445eb4" stroke-linecap="round" stroke-linejoin="round" stroke-miterlimit="10" stroke-width="50" transform="matrix(.1 0 0 -.1 0 425.2)"/>
  <path d="m1813.6 2840.6l-83 118.7" fill="none" stroke="#445eb4" stroke-linecap="round" stroke-linejoin="round" stroke-miterlimit="10" stroke-width="50" transform="matrix(.1 0 0 -.1 0 425.2)"/>
  <path d="m1669.5 3046.7l-19.5 27.9" fill="none" stroke="#445eb4" stroke-linecap="round" stroke-linejoin="round" stroke-miterlimit="10" stroke-width="50" transform="matrix(.1 0 0 -.1 0 425.2)"/>
  <path d="m2126 1496.6v-349.2" fill="none" stroke="#445eb4" stroke-miterlimit="10" stroke-width="50" transform="matrix(.1 0 0 -.1 0 425.2)"/>
  <path d="m2208.4 1110c0-45.5-36.9-82.5-82.4-82.5s-82.4 37-82.4 82.5 36.9 82.4 82.4 82.4 82.4-36.9 82.4-82.4z" fill="none" stroke="#445eb4" stroke-miterlimit="10" stroke-width="50" transform="matrix(.1 0 0 -.1 0 425.2)"/>
 </g>
</svg>